<?xml version="1.0" encoding="UTF-8"?><svg id="a" xmlns="http://www.w3.org/2000/svg" viewBox="0 0 280.99 93.4"><defs><style>.b{fill:#00aeef;}.c{fill:#f7941d;}.d{fill:#8dc63f;}.e{fill:#da1c5c;}.f{fill:#fefefe;}</style></defs><path class="c" d="M119.6,21.37c-.02,11.54-9.35,20.84-20.9,20.83-11.52,0-20.86-9.37-20.84-20.89,.02-11.53,9.4-20.88,20.9-20.85,11.54,.04,20.86,9.38,20.84,20.91ZM98.77,4.25c-9.39-.04-17.1,7.58-17.15,16.94-.05,9.5,7.59,17.22,17.08,17.24,9.37,.02,17.11-7.63,17.16-16.96,.05-9.47-7.6-17.18-17.1-17.22Z"/><path class="d" d="M280.94,39.95c.01-12.97,.03-25.23,.05-38.2,0-.05-.02-.11-.04-.16-.16-.9-.93-1.58-1.87-1.58-.72,0-1.35,.41-1.67,1h0c-6.88,11.99-14.93,25.37-21.81,37.36-.18,.32-.39,.62-.64,1.02-.24-.39-.4-.63-.54-.87-6.85-11.93-13.7-23.86-20.55-35.79-.92-1.63-1.46-2.29-1.89-2.43-.29-.18-.63-.28-.99-.28-1.05,0-1.91,.85-1.91,1.91,0,.01,0,.02,0,.04V40.11h0s0,.06,0,.1c0,1.03,.83,1.86,1.86,1.86,.73,0,1.36-.43,1.67-1.05,.14-.17,.2-.53,.2-1.21,0-9.53,0-20.1,0-29.63v-1.21l.28-.04c1.36,2.3,2.71,4.6,4.07,6.91,4.78,8.16,9.57,16.32,14.34,24.48,.52,.89,1.2,1.47,2.22,1.71,2.31,.53,3.77-.08,4.97-2.12,5.86-10.02,11.73-20.03,17.59-30.05,.2-.35,.43-.68,.64-1.03l.19,.09v1.28c0,9.57,0,20.35,0,29.92v.03h0c0,.25,.04,.44,.1,.6,.25,.77,.96,1.32,1.81,1.32,1.06,0,1.92-.86,1.92-1.92,0-.36,0,.19,0-.2Z"/><path class="e" d="M194.78,39.28h0c-6.49-12.74-12.29-24.02-18.69-36.79-.83-1.65-1.74-2.07-3.5-2.07-1.88,0-3.18,.82-4.09,2.47-7.08,12.78-13.11,23.63-20.2,36.4,0,0,0,.01,0,.02-.14,.26-.23,.56-.23,.88,0,1.02,.83,1.85,1.85,1.85,.73,0,1.35-.42,1.66-1.04,.01-.02,.02-.04,.04-.06,5.31-9.42,10.65-18.83,15.99-28.23,1.28-2.25,2.55-4.5,3.88-6.83,.33-.57,.65-1.15,.99-1.73,.29,.51,.47,.81,.63,1.13,3.26,6.41,6.53,12.83,9.79,19.24,2.73,5.36,5.59,10.89,8.31,16.25,.27,.75,.99,1.29,1.83,1.29,1.08,0,1.96-.88,1.96-1.96,0-.3-.07-.58-.19-.83Z"/><path class="b" d="M40.34,38.77c-2.47-3.06-2.52-3.13-4.99-6.17-2.52-3.12-5.06-6.22-7.69-9.46,1.43-.12,2.69-.12,3.9-.35,5.85-1.1,9.75-6.14,9.34-11.97-.4-5.62-5.19-10.24-11.05-10.32-9.3-.12-18.6-.04-27.9-.06h-.05c-.11,0-.2,.01-.28,.03C.72,.62,.03,1.4,.03,2.34c0,.08,.03,.16,.04,.24,0,3.65-.08,37.63-.08,37.64,0,.11,.01,.2,.03,.28,.15,.91,.93,1.61,1.89,1.61s1.74-.7,1.89-1.61v-.03c.01-.08,.06-28.42,.05-36.24,5.77,.01,13.29,.01,18.62,.02,2.62,0,5.25-.07,7.86,.06,4.04,.2,7.29,4.22,6.75,8.18-.54,3.95-3.48,6.59-7.57,6.68-2.87,.07-5.74,.02-8.62,.02-.37,0-.9,0-1.43,0,.21,.36,.61,.76,.72,.89,5.82,7.14,11.47,14.05,17.32,21.17,.05,.06,.1,.12,.16,.17,.12,.13,.26,.24,.41,.33,.21,.14,.45,.24,.66,.25,.01,0,.02,0,.03,0,.09,.01,.18,.03,.28,.03,1.05,0,1.89-.85,1.89-1.89,0-.55-.24-1.04-.61-1.39Z"/><path class="f" d="M223.74,78.35c0-6-.04-11.33,.08-14.14h-.04c-1.49,3.23-9.18,19.02-13.89,28.62h-.83c-3.51-7.36-12.45-26.01-13.56-28.49h-.04c.12,2.52,.12,10.17,.12,15.14v13.36h-.87v-29.65h1.08c5.21,10.79,12.98,26.88,13.69,28.49h.04c1.24-2.48,8.97-18.36,13.89-28.49h1.2v29.65h-.87v-14.47Z"/><path class="f" d="M248.17,88.23c0,2.31,.17,4.05,.25,4.59h-.83c-.12-.33-.33-2.73-.29-4.51-1.16,3.18-3.85,5.09-9.02,5.09-5.83,0-7.73-3.52-7.73-6.33,0-5.13,4.84-6.58,10.71-6.58,3.72,0,4.88,0,6.04,.04v-2.07c0-3.23-1.61-6.2-7.15-6.2-5.13,0-6.95,2.4-7.53,5.58h-.87c.5-3.35,2.56-6.37,8.48-6.37s7.94,3.18,7.94,6.87v9.88Zm-.87-6.91c-1.61-.04-3.51-.04-6.08-.04-4.09,0-9.76,.62-9.76,5.79,0,3.31,2.73,5.5,6.82,5.5,6.66,0,9.02-3.31,9.02-8.35v-2.9Z"/><path class="f" d="M272.6,86.41c0,2.07,.04,5.54,.04,6.41h-.87c-.04-.74-.08-4.09-.04-5.95-1.36,4.38-4.01,6.45-8.68,6.45-3.97,0-8.23-1.82-8.23-8.56v-12.7h.87v12.78c0,4.14,2.03,7.65,7.4,7.65,6.24,0,8.64-4.63,8.64-10.54v-9.88h.87v14.35Z"/><path class="f" d="M279.54,64.95v-3.97h.87v3.97h-.87Zm0,7.11h.87v20.76h-.87v-20.76Z"/></svg>